<svg width="16" height="16" viewBox="0 0 24 24" fill="none" xmlns="http://www.w3.org/2000/svg">
<path d="M13.828 10.172L19.778 16.122C20.1693 16.5133 20.1693 17.1467 19.778 17.538L17.538 19.778C17.1467 20.1693 16.5133 20.1693 16.122 19.778L10.172 13.828M13.828 10.172L10.172 13.828M13.828 10.172L16.95 7.05C17.3413 6.65868 17.3413 6.02532 16.95 5.634L14.366 3.05C13.9747 2.65868 13.3413 2.65868 12.95 3.05L9.828 6.172M10.172 13.828L7.05 16.95C6.65868 17.3413 6.02532 17.3413 5.634 16.95L3.05 14.366C2.65868 13.9747 2.65868 13.3413 3.05 12.95L6.172 9.828M10.172 13.828L6.172 9.828" stroke="currentColor" stroke-width="2" stroke-linecap="round" stroke-linejoin="round"/>
</svg>
